<?xml version="1.0" encoding="UTF-8"?>
<svg id="Layer_2" data-name="Layer 2" xmlns="http://www.w3.org/2000/svg" viewBox="0 0 149.5 178.8">
  <defs>
    <style>
      .black-1 {
        fill: #231f20;
      }
    </style>
  </defs>
  <g id="Layer_1-2" data-name="Layer 1">
    <path class="black-1" d="M67.9,135.5c-5.1-1.8-14.1-3.3-20.1-3.3-14.5,0-23.3,5.3-23.3,11.7s8,11.9,24.2,11.9,19.2-6.3,19.2-16.4v-3.9h0ZM45.8,12.1c1.8-6.1,8.4-12.1,17.8-12.1,16.4,0,30.5,8.4,30.5,15.6s-3.3,6.3-3.9,10c-.2,1-.6,4.3-.8,8,21.9-2.5,29.5-9.4,30.5-12.3l2-.6c10.2,3.1,27.6,3.7,27.6,14.7s-15.1,13.3-61.2,17.6c-.2,3.5.2,20.9.2,24.8,3.1-.2,25.6-2.9,25.6-7.4s-1.2-3.7-3.7-5.5l2-1.8c5.5,3.1,6.8,4.7,12.3,4.9,7.4.2,18.6,2.9,18.6,10,0,11.1-10.8,14.3-54.2,18,.4,7.8.6,15.1,1.4,20.3.4,2.5.8,4.7,1,7.2,13.1,3.7,31.7,11.1,39.5,17,9.4,7.2,12.3,13.7,12.3,21.1s-7,11.7-13.5,11.7-12.3-3.5-16.8-9.4c-4.5-5.7-11.1-11.9-19.6-16.8v6.5c0,14.7-13.5,25-42.8,25.2-29.3,0-43.8-14.9-43.8-31.9s19.6-27.6,43.8-27.6,12.5.2,17.2.6c-.2-4.9-1.2-21.9-1.2-22.3-5.9.4-16.6.8-23.5.8-19.2,0-30.7-6.3-30.7-16.6.2-6.8,5.5-13.5,17-19.4l1.6,1.6c-3.9,3.5-5.7,6.8-5.7,11.1s4.3,6.5,16.8,6.5,17-.6,24.2-1.2c-.2-9-.6-17.8-.8-25.8-8.6.4-19.2.8-25.8.8C15.5,55.4,4.5,51.3,0,28.8l1.8-1c5.1,6.1,17,10.4,27.8,10.4s26.2-.8,35.6-1.8c0-16.4-.8-24.4-13.5-24.4s-3.5.2-5.5.6l-.4-.4v-.1Z"/>
  </g>
</svg>