<?xml version="1.0" encoding="UTF-8"?>
<svg id="Layer_2" data-name="Layer 2" xmlns="http://www.w3.org/2000/svg" viewBox="0 0 200.1 185.9">
  <defs>
    <style>
      .black-1 {
        fill: #231f20;
      }
    </style>
  </defs>
  <g id="Layer_1-2" data-name="Layer 1">
    <path class="black-1" d="M113.5,141.2h34.2v-41.1h-34.2v41.1ZM147.7,56.1h-34.2v40.7h34.2v-40.7ZM177.4,150.2c-.2,2.5-13.7,10.2-24.8,10.2h-4.9v-16h-34.2v9.2c0,.8-4.5,11.3-29.1,11.3V40.9l30.1,11.9h31.1l11.1-14.5,28.7,20.5c-1.2,1.6-3.9,3.5-8,4.5v87-.1ZM196.4,20.5c-1.4,2.3-4.5,2.9-10,2.9h-113.8l-.8-3.3h83.7L170,0l26.4,20.5ZM171.9,160.3l28.2,22.7c-1.6,2.3-4.7,2.9-10.4,2.9H54.2l-.8-3.3h103l15.6-22.3h-.1ZM50.9,125.5l28.7-4.3.4,1.8c-11.9,8.8-31.3,21.5-60.6,37.9-1.2,2.7-3.7,4.9-6.3,5.5L0,131.8c4.9-.4,12.7-1.4,22.3-2.5V63H3.3l-.8-3.3h19.9V5.1l36.6,3.5c-.4,2.9-2.3,4.3-8,5.1v45.6l10.6-19.6,19,20.5c-1.6,2.3-4.7,2.9-9.8,2.9h-19.9v62.4h0Z"/>
  </g>
</svg>