<?xml version="1.0" encoding="UTF-8"?>
<svg id="Layer_2" data-name="Layer 2" xmlns="http://www.w3.org/2000/svg" viewBox="0 0 113.7 181.1">
  <defs>
    <style>
      .black-1 {
        fill: #231f20;
      }
    </style>
  </defs>
  <g id="Layer_1-2" data-name="Layer 1">
    <path class="black-1" d="M4.7,3.5C6.1,1.2,11,0,13.9,0c13.3,0,24.6,15.6,24.6,26.8s-2,12.3-6.8,18.6c-4.5,6.1-9.8,18-9.8,29.1s.2,5.3,1,7.8l1,.2c9.6-24.6,25-58.7,50.1-58.5,7.2.2,17,1.8,25.2,10.6,8.4,9.4,14.5,23.5,14.5,54.2,0,44.4-19.2,77.4-90.3,92.3l-1.6-2.3c49.9-18.4,60.2-61.6,60.2-87.4s-1.8-54.9-16-54.9c-16.8-.2-29.5,23.5-32.5,60,.6,3.1,1,6.3,1,9.4,0,9.6-3.3,17.8-10.6,17.8C7.9,123.7,0,102.4,0,87.7,0,54.1,12.1,37.4,12.1,22.6S12.1,5.2,4.9,3.6l-.2-.2v.1Z"/>
  </g>
</svg>