<?xml version="1.0" encoding="UTF-8"?>
<svg id="Layer_2" data-name="Layer 2" xmlns="http://www.w3.org/2000/svg" viewBox="0 0 178.8 131">
  <defs>
    <style>
      .black-1 {
        fill: #231f20;
      }
    </style>
  </defs>
  <g id="Layer_1-2" data-name="Layer 1">
    <path class="black-1" d="M47.6,127.3c28.4-3.9,57.3-15.4,71.6-25.6,17.2-12.5,27.4-30.7,27.4-47.9s-9.2-43-34-43-44.8,11.5-64.7,28.9c-3.7,3.3-10.2,11.5-17.4,11.5C11.5,51.2,0,36.3,0,22.5s2.7-11.7,5.7-13.7l1.2.6c.4,6.3,5.1,13.7,14.3,13.7C40.2,23.1,73,0,115.4,0s63.4,17.8,63.4,56.3-12.3,43-32.5,54.6c-22.9,13.3-54.9,18.4-98,20.1l-.8-3.7h.1Z"/>
  </g>
</svg>