<?xml version="1.0" encoding="UTF-8"?>
<svg id="Layer_2" data-name="Layer 2" xmlns="http://www.w3.org/2000/svg" viewBox="0 0 195.4 193.6">
  <defs>
    <style>
      .black-1 {
        fill: #231f20;
      }
    </style>
  </defs>
  <g id="Layer_1-2" data-name="Layer 1">
    <path class="black-1" d="M194.3,63.3c-1.6,2.3-4.3,2.9-10.2,2.9h-76.1c6.8,37.9,31.7,74.1,87.4,94.8l-.2,2.5c-15.1,3.1-23.9,12.9-26.4,30.1-43.6-28-57.7-79-63-120.3h-.2c-6.8,48.9-28.2,91.3-104,120.3l-1.6-2.7c54.9-36.8,70.2-78.4,74.5-124.6H1.2l-1-3.3h74.5c1.4-17.6,1.4-42,1.4-63l41.3,3.7c-.2,2.9-1.8,4.7-8.2,5.3-.4,18.6-.6,36.6-2.5,54h40.1l16.8-21.5,30.7,21.9v-.1Z"/>
  </g>
</svg>