<?xml version="1.0" encoding="UTF-8"?>
<svg id="Layer_2" data-name="Layer 2" xmlns="http://www.w3.org/2000/svg" viewBox="0 0 17.5 240.7">
  <defs>
    <style>
      .black-1 {
        fill: #231f20;
      }
    </style>
  </defs>
  <g id="Layer_1-2" data-name="Layer 1">
    <path class="black-1" d="M8.3,9c4,0,5.8-2.1,5.8-4.5S12.4,0,8.3,0,2.5,2.1,2.5,4.5s1.7,4.5,5.8,4.5M8.3,6.9c-3.1,0-4.2-1-4.2-2.3s1.1-2.3,4.2-2.3,4.2,1,4.2,2.3-1.1,2.3-4.2,2.3M4.3,17.4v-.7c0-2.3,1.6-3.4,4-3.4s4,1,4,3.4v.7H4.2h.1ZM13.9,19.4v-2.9c0-3.1-1.8-5.4-5.6-5.4s-5.6,1.9-5.6,5.4v2.9h11.2ZM13.9,23.4v-2.1l-11.2,3.6v2.2l11.2,3.8v-2.1l-2.7-.8v-3.9l2.7-.8h0v.1ZM9.6,27.6l-5.2-1.5h0l5.2-1.4v3h0v-.1ZM13.9,40.3v-2.1h-5v-3.3h5v-2.1H2.7v2.1h4.6v3.3H2.7v2.1h11.2ZM11.8,42.8c.3.5.6,1.1.6,2.1,0,1.7-1.2,3.2-4.1,3.2s-4.1-1.5-4.1-3.2.4-1.7.6-2.1h-1.8c-.2.3-.5,1.2-.5,2.4,0,3.3,2.5,5.1,5.8,5.1s5.8-1.8,5.8-5.2-.2-2-.4-2.4h-1.9v.1ZM13.9,53.5v-2.1l-11.2,3.6v2.2l11.2,3.8v-2.1l-2.7-.8v-3.9l2.7-.8h0v.1ZM9.6,57.7l-5.2-1.5h0l5.2-1.4v3h0v-.1ZM13.9,64.8v-1.9H2.7v3l8.4,2.4h0l-8.4,2.3v3.1h11.2v-1.9H4.5l9.4-2.7v-1.5l-9.4-2.8h9.4ZM8.3,90c4,0,5.8-2.1,5.8-4.5s-1.7-4.5-5.8-4.5-5.8,2.1-5.8,4.5,1.7,4.5,5.8,4.5M8.3,87.8c-3.1,0-4.2-1-4.2-2.3s1.1-2.3,4.2-2.3,4.2,1,4.2,2.3-1.1,2.3-4.2,2.3M2,97.3c-.3,0-.6-.2-.6-.6,0-.6.5-1.2.5-1.8,0-1.2-1.4-1.5-1.9-1.5v1c.3,0,.6.1.6.5s-.5,1.1-.5,1.8c0,1.2,1.3,1.5,1.9,1.5v-.9ZM13.9,93.2v-2.1l-11.2,3.6v2.2l11.2,3.8v-2.1l-2.7-.8v-3.9l2.7-.8h0v.1ZM9.6,97.4l-5.2-1.5h0l5.2-1.4v3h0v-.1ZM8.3,110.7c4,0,5.8-2.1,5.8-4.5s-1.7-4.5-5.8-4.5-5.8,2.1-5.8,4.5,1.7,4.5,5.8,4.5M8.3,108.6c-3.1,0-4.2-1-4.2-2.3s1.1-2.3,4.2-2.3,4.2,1,4.2,2.3-1.1,2.3-4.2,2.3M2.7,115.2h7.9c.9,0,1.6.3,1.6,1.3s0,.7-.2.9h1.8c.2-.4.3-1,.3-1.5,0-1.5-1-2.8-3.4-2.8H2.8v2.1h-.1ZM14.1,127.5v-1.4l-11.5-2.9v1.4l11.5,2.8h0v.1ZM13.9,140.6v-2h-4.8c-1.1,0-1.9-.4-1.9-1.4s.5-1.1,1.8-1.1h5v-2h-5.3c-1.7,0-3.1.6-3.1,2.4s.9,1.9,1.4,2.2h-1.3v1.9h8.3-.1ZM17,149.7c.2-.5.5-1.5.5-2.8,0-3-1.8-3.8-4.4-3.8h-7.4v1.8h1.3c-.7.5-1.4,1-1.4,2.2,0,2.2,2,3,4.3,3,3.3,0,4.1-1.7,4.1-2.9s-.8-1.9-1.4-2.2h.8c1.3,0,2.6.3,2.6,2.2s-.5,2-.7,2.4h1.8-.1v.1ZM9.7,148c-1.7,0-2.7-.4-2.7-1.4s.9-1.6,2.7-1.6,2.8.5,2.8,1.8-.8,1.3-2.8,1.3M4.1,152.4h-2v2.1h2v-2.1ZM13.9,152.5H5.6v2h8.3v-2ZM13.6,162.2c.2-.4.4-1.3.4-2.3,0-1.8-.9-3.1-2.4-3.1s-1.4.5-2.1,1.5l-.6,1c-.4.6-.6.9-1.1.9s-.8-.3-.8-1.1.2-1.3.4-1.8h-1.5s-.3.9-.3,2c0,1.8,1.2,2.9,2.3,2.9s1.8-.9,2.3-1.8l.5-.8c.4-.7.7-.9,1-.9.6,0,.8.6.8,1.3s-.4,1.8-.5,2.1h1.7-.1v.1ZM9.1,168.8c-1.1,0-2.2-.4-2.2-1.5s.7-1.4,2.2-1.4v2.9ZM11.9,164.5c.3.4.6.9.6,2.2s-.9,2.1-2.3,2.1v-4.8h-.4c-3.4,0-4.4,1.5-4.4,3.3s1.9,3.4,4.4,3.4,4.1-1.2,4.1-3.8-.4-2.1-.5-2.5h-1.6.1v.1ZM4.3,179v-.7c0-2.3,1.6-3.4,4-3.4s4,1,4,3.4v.7H4.2h.1ZM13.9,181.1v-2.9c0-3.1-1.8-5.4-5.6-5.4s-5.6,1.9-5.6,5.4v2.9h11.2ZM2.9,188.9c0,.4-.4,1-.4,2.1,0,3.4,3,4.4,6.3,4.4s5.2-.8,5.2-3.6-1.4-3.3-3.7-3.3-3.6,1.4-3.6,3,.5,1.7,1.1,2.1h0c-1.4,0-3.7-.4-3.7-2.6s.3-1.5.5-1.8h-1.7v-.3h0ZM10.4,193.2c-1.3,0-2.1-.5-2.1-1.4s.9-1.4,2.1-1.4,2.1.4,2.1,1.4-.8,1.4-2.1,1.4M13.9,201.2v-2H2.7v1.7l2.4,2.7,1.4-.9-1.4-1.5h8.9-.1ZM8.3,213.4c2.8,0,5.8-.6,5.8-3.5s-3-3.5-5.8-3.5-5.8.6-5.8,3.5,3,3.5,5.8,3.5M8.3,211.4c-2.5,0-4.3-.3-4.3-1.5s1.8-1.5,4.3-1.5,4.3.3,4.3,1.5-1.8,1.5-4.3,1.5M13.9,222v-6.4h-1.6v4.1l-.4-.4c-2-1.9-4.3-3.6-6.3-3.6s-3,.9-3,3.2.3,2.3.6,2.8l1.8-.2c-.3-.4-.9-1-.9-2.2s.6-1.5,1.7-1.5c1.7,0,3.6,1.7,5.5,3.4l.9.8h1.7ZM8.3,239.3c-2.5,0-4.6-1.9-4.6-4.4s2.1-4.4,4.6-4.4,4.6,1.9,4.6,4.4-2.1,4.4-4.6,4.4M8.3,240.7c3.2,0,5.8-2.6,5.8-5.8s-2.6-5.8-5.8-5.8-5.8,2.6-5.8,5.8,2.6,5.8,5.8,5.8M9.3,233.2c.9.1,1.4.7,1.4,1.6,0,1.3-1,2-2.4,2s-2.3-.7-2.3-2,.5-1.5,1.3-1.6v-1.2c-1.6.2-2.4,1.4-2.4,2.8,0,2.1,1.5,3.2,3.5,3.2s3.5-1.2,3.5-3.3-.9-2.6-2.5-2.8v1.2h0l-.1.1Z"/>
  </g>
</svg>