<?xml version="1.0" encoding="UTF-8"?>
<svg id="Layer_2" data-name="Layer 2" xmlns="http://www.w3.org/2000/svg" viewBox="0 0 36.3 233.3">
  <defs>
    <style>
      .black-1 {
        fill: #231f20;
      }
    </style>
  </defs>
  <g id="Layer_1-2" data-name="Layer 1">
    <path class="black-1" d="M.1,14.3v5h36V0h-4.5c.2.5.3,1,.3,1.5v12.8H.1ZM27.7,38.5l8.4-2.1v-5.7L.1,40.2v6.3l36,9.7v-5.4l-8.4-2.1v-10.2h0ZM24.1,48.1l-18-4.5,18-4.5v9ZM36.1,73.8L.1,64.2v5l30,7.6L.1,84.3v5.3l36-9.5v-6.3ZM.1,106.1h36v-5H.1v5ZM4.7,126.8v-6.6c0-.5,0-1,.3-1.5H.2v21.3h4.8c-.2-.6-.3-1.1-.3-1.5v-6.6h31.4v-5H4.7v-.1ZM30.3,151.9h-4c-2.6,0-4.3.6-6.3,3l-8.6,10.6c-.6.7-1.3,1-2.3,1h-2.4c-1.4,0-2.2-.7-2.2-1.8v-9.8c0-.8.1-1.6.5-2.2H0v13.3c0,3.9,2.3,5.5,5.8,5.5h3.3c2.6,0,4.3-.7,6.3-3.1l8.7-10.6c.5-.6,1.3-.9,2.2-.9h3.1c1.4,0,2.2.7,2.2,2v10.6c0,.8-.1,1.6-.5,2.2h5v-14.2c0-4-2.3-5.5-5.8-5.5M.1,202.8h36v-19.7h-4.5c.2.5.3,1,.3,1.5v13.2h-12.5v-9.5c0-.5,0-1,.2-1.5h-4.5c.1.5.2,1,.2,1.5v9.5H4.6v-12.3c0-.5,0-1,.3-1.5H.4v18.8H.1ZM36.1,228.3h-16.8v-9.5c0-.5,0-1,.2-1.5h-4.5c.1.5.2,1,.2,1.5v9.5H4.5v-12.3c0-.5,0-1,.3-1.5H.3v18.8h36v-5h-.2Z"/>
  </g>
</svg>