<?xml version="1.0" encoding="UTF-8"?>
<svg id="Layer_2" data-name="Layer 2" xmlns="http://www.w3.org/2000/svg" viewBox="0 0 36.1 217.8">
  <defs>
    <style>
      .black-1 {
        fill: #231f20;
      }
    </style>
  </defs>
  <g id="Layer_1-2" data-name="Layer 1">
    <g>
      <rect class="black-1" x=".1" width="36" height="5"/>
      <path class="black-1" d="M36,24v-5.4l-17,6.56v-.36c0-1.9-1.2-4.5-5.6-4.5h-7.6c-3.4,0-5.8,1.6-5.8,5.5v15.8h36v-5h-16.6v-6.8l16.6-5.8ZM15.3,36.7H4.8v-9.5h-.1c0-1.2.7-1.9,2.2-1.9h6.2c1.4,0,2.2.7,2.2,1.9v9.5Z"/>
      <path class="black-1" d="M30.3,56.5H.1v5h29.3c1.4,0,2.2.7,2.2,2v7.5c0,1.2-.7,1.9-2.2,1.9H.1v5h30.2c3.4,0,5.8-1.6,5.8-5.5v-10.2c0-3.9-2.4-5.5-5.8-5.5"/>
      <path class="black-1" d="M30.3,92.1h-4c-2.6,0-4.3.6-6.3,3l-8.6,10.6c-.6.7-1.3,1-2.3,1h-2.4c-1.4,0-2.2-.7-2.2-1.8v-9.8c0-.8.1-1.6.5-2.2H0v13.3C0,110.1,2.3,111.7,5.8,111.7h3.3c2.6,0,4.3-.7,6.3-3.1l8.7-10.6c.5-.6,1.3-.9,2.2-.9h3.1c1.4,0,2.2.7,2.2,2v10.6c0,.8-.1,1.6-.5,2.2h5v-14.2c0-4-2.3-5.5-5.8-5.5"/>
      <path class="black-1" d="M4.7,131.6v-6.6c0-.5,0-1,.3-1.5H.2v21.3h4.8c-.2-.6-.3-1.1-.3-1.5v-6.6h31.4v-5H4.7v-.1Z"/>
      <path class="black-1" d="M27.7,161.6l8.4-2.1v-5.7L.1,163.3v6.3l36,9.7v-5.4l-8.4-2.1v-10.2h0ZM24.1,171.2l-18-4.5,18-4.5v9Z"/>
      <polygon class="black-1" points="27.3 206.8 27.3 201.6 6 195.4 36.1 195.4 36.1 190.7 .1 190.7 .1 197.9 21.8 204.1 .1 210.2 .1 217.8 36.1 217.8 36.1 213.1 6 213.1 27.3 206.9 27.3 206.9 27.3 206.8"/>
    </g>
  </g>
</svg>