<?xml version="1.0" encoding="UTF-8"?>
<svg id="Layer_2" data-name="Layer 2" xmlns="http://www.w3.org/2000/svg" viewBox="0 0 36.2 146">
  <defs>
    <style>
      .black-1 {
        fill: #231f20;
      }
    </style>
  </defs>
  <g id="Layer_1-2" data-name="Layer 1">
    <g>
      <rect class="black-1" x=".1" width="36" height="5"/>
      <path class="black-1" d="M19.3,31.3c0-1.3.6-1.8,2.3-2.5l14.5-5.8v-5.8l-15.9,6.6c-1.6.7-2.7,1.7-3,3-.5-1.2-1.5-2.3-2.7-2.8L.2,17.9v5.5l12.7,5.2c1.5.6,2.3,1.4,2.3,2.6v3.9H.2v5h36v-5h-16.8v-4,.2h-.1Z"/>
      <path class="black-1" d="M27.7,59.5l8.4-2.1v-5.7L.1,61.2v6.3l36,9.7v-5.4l-8.4-2.1v-10.2h0ZM24.1,69.1l-18-4.5,18-4.5v9Z"/>
      <path class="black-1" d="M30.3,88.5h-15.2v9.4c0,.5,0,1-.2,1.5h4.5c-.1-.5-.2-1-.2-1.5v-4.5h10.1c1.4,0,2.2.7,2.2,2v7.5c0,1.2-.7,1.9-2.2,1.9H6.7c-1.4,0-2.2-.7-2.2-2v-11.2c0-.8.1-1.6.5-2.2H0v14.8c0,3.9,2.4,5.5,5.8,5.5h24.4c3.4,0,5.8-1.6,5.8-5.5v-10.2c0-3.9-2.4-5.5-5.8-5.5"/>
      <path class="black-1" d="M30.3,124.8H5.9c-3.4,0-5.8,1.6-5.8,5.5v10.2c0,3.9,2.4,5.5,5.8,5.5h24.4c3.4,0,5.8-1.6,5.8-5.5v-10.2c0-3.9-2.4-5.5-5.8-5.5ZM31.6,139.2c0,1.2-.7,1.9-2.2,1.9H6.8c-1.4,0-2.2-.7-2.2-2v-7.5c0-1.2.7-1.9,2.2-1.9h22.6c1.4,0,2.2.7,2.2,2v7.5Z"/>
    </g>
  </g>
</svg>